<svg version="1" xmlns="http://www.w3.org/2000/svg" width="170.667" height="170.667" viewBox="0 0 128.000000 128.000000"><path d="M32 15.4c0 5.8-.6 6.4-5.9 5.6-.7-.1-2.7.4-4.3 1.1-5.7 2.4-5.8 2.9-5.8 48v41.1l3.4 3.4 3.4 3.4h82.4l3.4-3.4 3.4-3.4V70.1c0-44.4-.2-46-5.2-47.7-3.2-1.1-3.4-1.1-7.3-1.3L96 21V9.9l-5.2.3-5.3.3.1 5.2c.1 4.7-.2 5.3-2 5.4-2.6.1-37.5.1-39.6 0-1.2-.1-1.6-1.3-1.5-5.4v-5.2l-5.2-.3-5.3-.3v5.5zm69.1 34.3c.1 2.2.1 54.4 0 55.9-.1.7-11.2 1.1-37.1 1.1-36.7-.1-37-.1-37.1-2.1 0-1.2-.1-14.4-.2-29.4L26.5 48h37.3c34.7 0 37.2.1 37.3 1.7z"/><path d="M37.5 59c-.8 1.3 0 10 .9 10.1 1.3.2 6.6.2 8.4 0 1.5-.1 1.7-10 .2-10.2-3.5-.4-9.2-.3-9.5.1zM58.9 60.5c0 1.1-.2 3.5-.3 5.2-.1 1.8 0 3.3.3 3.4 3.6.5 8.3.4 9.2-.2.6-.4 1.2-2.7 1.3-5.3.1-4-.1-4.6-1.9-4.7-1.1-.1-3.5-.2-5.2-.3-2.7-.1-3.3.2-3.4 1.9zM81.1 58.8c-.6.2-1.1 2.7-1.1 5.5v5.2l4.7-.2c2.7 0 5.1-.2 5.4-.2.4-.1.6-2.4.5-5.2l-.1-5.2-4.1-.1c-2.3-.1-4.7 0-5.3.2z"/></svg>